<svg xmlns="http://www.w3.org/2000/svg" data-name="Layer 1" viewBox="0 0 2659.36 942.08"><path fill="#ee2326" d="M1212.76,414.28h-186V255.47H908.89V686.63h117.9V513.91h186V686.63h117.66V255.47H1212.76Zm287.38,6.22c9.86-58.21,42-88.63,94.22-88.63,52.76,0,88.61,35.87,90.33,88.63ZM1595,244.11c-129.71,0-216.73,89.55-216.73,223.88,0,139.73,86,228.51,220.47,228.51,107.42,0,181.06-49.27,208.69-142.55H1680.19c-11.53,34.08-38.45,51.16-78.91,51.16-60.82,0-97.36-36-100.44-98.67h306.59c0-15.13.89-20.46.89-27.68,0-145.1-82.34-234.65-213.32-234.65m413.73,7.61C1967,260,1860,292.18,1860,455.44V686.56h119.27V495.69c0-70.69,9.82-103.88,39.28-125.29,18-14.44,44.13-22.43,74.4-22.43,12.55,0,17.94.94,32.32,3.55V253.69s-47.57-15.44-116.54-2m352.38,355c-62.83,0-99.5-51-99.5-136.12,0-86,35.91-136.15,99.5-136.15,62.63,0,98.53,49.26,98.53,135.26,0,87-35.9,137-98.53,137m0-362.74c-133.7.06-219.7,88.69-219.7,226.62,0,137,86,225.79,219.7,225.79,132.43,0,218.57-88.78,218.57-225.79,0-137.95-86.14-226.62-218.57-226.62"/><path d="M586,202.46,401.66,66.23v388L586,326.45Zm0,554.85V490.78L401.66,623.33Z"/><path fill="#ee2326" d="M79.68,741.81l184.44,134V321L79.68,184.69Z"/></svg>